<svg xmlns="http://www.w3.org/2000/svg" xmlns:xlink="http://www.w3.org/1999/xlink" contentStyleType="text/css" data-diagram-type="ACTIVITY" height="933px" preserveAspectRatio="none" style="width:1954px;height:933px;background:#F9F8F5;" version="1.1" viewBox="0 0 1954 933" width="1954px" zoomAndPan="magnify"><?plantuml 1.2026.6?><defs/><g><rect fill="#F9F8F5" height="933" style="stroke:none;stroke-width:1;" width="1954" x="0" y="0"/><g class="title" data-source-line="80"><text fill="#000000" font-family="'Helvetica'" font-size="24" font-weight="700" lengthAdjust="spacing" textLength="558.8203" x="697.079" y="33.4805">PROCESO 1 - Autenticacion e Ingreso al Sistema</text><text fill="#000000" font-family="'Helvetica'" font-size="24" font-weight="700" lengthAdjust="spacing" textLength="1037.4961" x="457.7411" y="57.4805">Aplica a CUALQUIER usuario (Super Admin, Admin, Jefe, Encargado, Docente, Estudiante)</text></g><rect fill="#FFFFFF" height="19" style="stroke:#FFFFFF;stroke-width:1;" width="1917.9783" x="15" y="81.8696"/><rect fill="#E3F2FD" height="836" style="stroke:#E3F2FD;stroke-width:1;" width="952.6113" x="15" y="81.8696"/><ellipse cx="534.9822" cy="115.8696" fill="#FFFFFF" rx="10" ry="10" style="stroke:#000000;stroke-width:1;"/><rect fill="#FFFFFF" height="56" rx="6" ry="6" style="stroke:#000000;stroke-width:2;" width="291.1689" x="389.3977" y="145.8696"/><text fill="#000000" font-family="'Helvetica'" font-size="18" lengthAdjust="spacing" textLength="241.1543" x="399.3977" y="169.73">Abre el navegador y entra a la</text><text fill="#000000" font-family="'Helvetica'" font-size="18" lengthAdjust="spacing" textLength="271.1689" x="399.3977" y="187.73">plataforma SGL (pagina de Login)</text><rect fill="#FFFFFF" height="56" rx="6" ry="6" style="stroke:#000000;stroke-width:2;" width="312.043" x="378.9607" y="221.8696"/><text fill="#000000" font-family="'Helvetica'" font-size="18" lengthAdjust="spacing" textLength="84.0322" x="388.9607" y="245.73">Escribe su</text><text fill="#000000" font-family="'Helvetica'" font-size="18" font-weight="700" lengthAdjust="spacing" textLength="203.0098" x="477.9939" y="245.73">Carnet de Identidad (CI)</text><text fill="#000000" font-family="'Helvetica'" font-size="18" lengthAdjust="spacing" textLength="33.0117" x="388.9607" y="263.73">y su</text><text fill="#000000" font-family="'Helvetica'" font-size="18" font-weight="700" lengthAdjust="spacing" textLength="96.0381" x="426.9734" y="263.73">contrasena</text><rect fill="#FFFFFF" height="38" rx="6" ry="6" style="stroke:#000000;stroke-width:2;" width="243.9102" x="413.0271" y="297.8696"/><text fill="#000000" font-family="'Helvetica'" font-size="18" lengthAdjust="spacing" textLength="223.9102" x="423.0271" y="321.73">Presiona el boton "Ingresar"</text><rect fill="#FFFFFF" height="38" rx="6" ry="6" style="stroke:#000000;stroke-width:2;" width="282.0811" x="26.5151" y="725.8696"/><text fill="#000000" font-family="'Helvetica'" font-size="18" lengthAdjust="spacing" textLength="163.0635" x="36.5151" y="749.73">El sistema lo lleva al</text><text fill="#000000" font-family="'Helvetica'" font-size="18" font-weight="700" lengthAdjust="spacing" textLength="94.0166" x="204.5796" y="749.73">Dashboard</text><path d="M334.1113,773.8696 L334.1113,814.8696 L314.1113,818.8696 L334.1113,822.8696 L334.1113,863.8696 A0,0 0 0 0 334.1113,863.8696 L714.4473,863.8696 A0,0 0 0 0 714.4473,863.8696 L714.4473,783.8696 L704.4473,773.8696 L334.1113,773.8696 A0,0 0 0 0 334.1113,773.8696" fill="#CEDCD8" style="stroke:#000000;stroke-width:1;"/><path d="M704.4473,773.8696 L704.4473,783.8696 L714.4473,783.8696 L704.4473,773.8696" fill="#CEDCD8" style="stroke:#000000;stroke-width:1;"/><text fill="#000000" font-family="'Helvetica'" font-size="16" font-weight="700" lengthAdjust="spacing" textLength="123.5547" x="340.1113" y="791.1899">Menu segun rol:</text><text fill="#000000" font-family="'Helvetica'" font-size="16" lengthAdjust="spacing" textLength="307.6641" x="340.1113" y="807.1899">- Admin: TODO (usuarios, config, auditoria)</text><text fill="#000000" font-family="'Helvetica'" font-size="16" lengthAdjust="spacing" textLength="331.7344" x="340.1113" y="823.1899">- Jefe: guias, labs, equipos, traslados, reportes</text><text fill="#000000" font-family="'Helvetica'" font-size="16" lengthAdjust="spacing" textLength="359.3359" x="340.1113" y="839.1899">- Encargado: labs, equipos, evaluaciones, manten.</text><text fill="#000000" font-family="'Helvetica'" font-size="16" lengthAdjust="spacing" textLength="233.9063" x="340.1113" y="855.1899">- Docente/Estudiante: solo Guias</text><rect fill="#FFFFFF" height="56" rx="6" ry="6" style="stroke:#000000;stroke-width:2;" width="293.1113" x="21" y="790.8696"/><text fill="#000000" font-family="'Helvetica'" font-size="18" lengthAdjust="spacing" textLength="273.1113" x="31" y="814.73">El menu lateral muestra SOLO los</text><text fill="#000000" font-family="'Helvetica'" font-size="18" lengthAdjust="spacing" textLength="246.1113" x="31" y="832.73">modulos permitidos para su rol</text><ellipse cx="167.5557" cy="894.8696" fill="none" rx="11" ry="11" style="stroke:#000000;stroke-width:1;"/><ellipse cx="167.5557" cy="894.8696" fill="#FFFFFF" rx="6" ry="6" style="stroke:#000000;stroke-width:1;"/><rect fill="#FFFFFF" height="56" rx="6" ry="6" style="stroke:#000000;stroke-width:2;" width="239.1641" x="724.4473" y="591.8696"/><text fill="#000000" font-family="'Helvetica'" font-size="18" lengthAdjust="spacing" textLength="196.0928" x="734.4473" y="615.73">Ve el mensaje de error y</text><text fill="#000000" font-family="'Helvetica'" font-size="18" lengthAdjust="spacing" textLength="219.1641" x="734.4473" y="633.73">puede intentar nuevamente</text><ellipse cx="844.0293" cy="678.8696" fill="none" rx="11" ry="11" style="stroke:#000000;stroke-width:1;"/><ellipse cx="844.0293" cy="678.8696" fill="#FFFFFF" rx="6" ry="6" style="stroke:#000000;stroke-width:1;"/><line style="stroke:#000000;stroke-width:1;" x1="15" x2="15" y1="81.8696" y2="917.8696"/><rect fill="#FFF3E0" height="836" style="stroke:#FFF3E0;stroke-width:1;" width="963.7275" x="967.6113" y="81.8696"/><rect fill="#FFFFFF" height="38" rx="6" ry="6" style="stroke:#000000;stroke-width:2;" width="208.6045" x="1344.0693" y="355.8696"/><text fill="#000000" font-family="'Helvetica'" font-size="18" lengthAdjust="spacing" textLength="188.6045" x="1354.0693" y="379.73">Recibe CI + contrasena</text><rect fill="#FFFFFF" height="56" rx="6" ry="6" style="stroke:#000000;stroke-width:2;" width="214.0889" x="1341.3271" y="413.8696"/><text fill="#000000" font-family="'Helvetica'" font-size="18" lengthAdjust="spacing" textLength="194.0889" x="1351.3271" y="437.73">Verifica las credenciales</text><text fill="#000000" font-family="'Helvetica'" font-size="18" lengthAdjust="spacing" textLength="187.1279" x="1351.3271" y="455.73">contra la base de datos</text><polygon fill="#FFFFFF" points="1351.3271,489.8696,1545.416,489.8696,1557.416,501.8696,1545.416,513.8696,1351.3271,513.8696,1339.3271,501.8696,1351.3271,489.8696" style="stroke:#000000;stroke-width:2;stroke-linejoin:miter;stroke-miterlimit:10;"/><text fill="#000000" font-family="'Helvetica'" font-size="18" lengthAdjust="spacing" textLength="194.0889" x="1351.3271" y="506.73">Credenciales correctas?</text><text fill="#000000" font-family="'Helvetica'" font-size="16" font-weight="700" lengthAdjust="spacing" textLength="15.1172" x="1324.21" y="498.1899">SI</text><text fill="#000000" font-family="'Helvetica'" font-size="16" font-weight="700" lengthAdjust="spacing" textLength="24" x="1557.416" y="498.1899">NO</text><rect fill="#FFFFFF" height="38" rx="6" ry="6" style="stroke:#000000;stroke-width:2;" width="340.5986" x="973.6113" y="533.8696"/><text fill="#000000" font-family="'Helvetica'" font-size="18" lengthAdjust="spacing" textLength="60.0381" x="983.6113" y="557.73">Genera</text><text fill="#000000" font-family="'Helvetica'" font-size="18" font-weight="700" lengthAdjust="spacing" textLength="96.0029" x="1048.6504" y="557.73">Token JWT</text><text fill="#000000" font-family="'Helvetica'" font-size="18" lengthAdjust="spacing" textLength="154.5557" x="1149.6543" y="557.73">(acceso + refresco)</text><rect fill="#FFFFFF" height="56" rx="6" ry="6" style="stroke:#000000;stroke-width:2;" width="328.1445" x="979.8384" y="591.8696"/><text fill="#000000" font-family="'Helvetica'" font-size="18" lengthAdjust="spacing" textLength="145.0811" x="989.8384" y="615.73">Registra el evento</text><text fill="#000000" font-family="'Helvetica'" font-size="18" font-weight="700" lengthAdjust="spacing" textLength="56.9971" x="1139.9204" y="615.73">LOGIN</text><text fill="#000000" font-family="'Helvetica'" font-size="18" lengthAdjust="spacing" textLength="96.0645" x="1201.9185" y="615.73">en Auditoria</text><text fill="#000000" font-family="'Helvetica'" font-size="18" lengthAdjust="spacing" textLength="193.0957" x="989.8384" y="633.73">(usuario, fecha/hora, IP)</text><rect fill="#FFFFFF" height="38" rx="6" ry="6" style="stroke:#000000;stroke-width:2;" width="237.0986" x="1025.3613" y="667.8696"/><text fill="#000000" font-family="'Helvetica'" font-size="18" lengthAdjust="spacing" textLength="81.0439" x="1035.3613" y="691.73">Detecta el</text><text fill="#000000" font-family="'Helvetica'" font-size="18" font-weight="700" lengthAdjust="spacing" textLength="37.9951" x="1121.4063" y="691.73">ROL</text><text fill="#000000" font-family="'Helvetica'" font-size="18" lengthAdjust="spacing" textLength="88.0576" x="1164.4023" y="691.73">del usuario</text><rect fill="#FFFFFF" height="38" rx="6" ry="6" style="stroke:#000000;stroke-width:2;" width="335.9229" x="1591.416" y="533.8696"/><text fill="#000000" font-family="'Helvetica'" font-size="18" lengthAdjust="spacing" textLength="315.9229" x="1601.416" y="557.73">Devuelve error "Credenciales invalidas"</text><line style="stroke:#000000;stroke-width:1;" x1="967.6113" x2="967.6113" y1="81.8696" y2="917.8696"/><line style="stroke:#000000;stroke-width:1;" x1="1931.3389" x2="1931.3389" y1="81.8696" y2="917.8696"/><line style="stroke:#000000;stroke-width:2;" x1="534.9822" x2="534.9822" y1="125.8696" y2="145.8696"/><polygon fill="#000000" points="530.9822,135.8696,534.9822,145.8696,538.9822,135.8696,534.9822,139.8696" style="stroke:#000000;stroke-width:1;stroke-linejoin:miter;stroke-miterlimit:10;"/><line style="stroke:#000000;stroke-width:2;" x1="534.9822" x2="534.9822" y1="201.8696" y2="221.8696"/><polygon fill="#000000" points="530.9822,211.8696,534.9822,221.8696,538.9822,211.8696,534.9822,215.8696" style="stroke:#000000;stroke-width:1;stroke-linejoin:miter;stroke-miterlimit:10;"/><line style="stroke:#000000;stroke-width:2;" x1="534.9822" x2="534.9822" y1="277.8696" y2="297.8696"/><polygon fill="#000000" points="530.9822,287.8696,534.9822,297.8696,538.9822,287.8696,534.9822,291.8696" style="stroke:#000000;stroke-width:1;stroke-linejoin:miter;stroke-miterlimit:10;"/><line style="stroke:#000000;stroke-width:2;" x1="167.5557" x2="167.5557" y1="763.8696" y2="790.8696"/><polygon fill="#000000" points="163.5557,780.8696,167.5557,790.8696,171.5557,780.8696,167.5557,784.8696" style="stroke:#000000;stroke-width:1;stroke-linejoin:miter;stroke-miterlimit:10;"/><line style="stroke:#000000;stroke-width:2;" x1="167.5557" x2="167.5557" y1="846.8696" y2="883.8696"/><polygon fill="#000000" points="163.5557,873.8696,167.5557,883.8696,171.5557,873.8696,167.5557,877.8696" style="stroke:#000000;stroke-width:1;stroke-linejoin:miter;stroke-miterlimit:10;"/><line style="stroke:#000000;stroke-width:2;" x1="844.0293" x2="844.0293" y1="647.8696" y2="667.8696"/><polygon fill="#000000" points="840.0293,657.8696,844.0293,667.8696,848.0293,657.8696,844.0293,661.8696" style="stroke:#000000;stroke-width:1;stroke-linejoin:miter;stroke-miterlimit:10;"/><line style="stroke:#000000;stroke-width:2;" x1="1448.3716" x2="1448.3716" y1="393.8696" y2="413.8696"/><polygon fill="#000000" points="1444.3716,403.8696,1448.3716,413.8696,1452.3716,403.8696,1448.3716,407.8696" style="stroke:#000000;stroke-width:1;stroke-linejoin:miter;stroke-miterlimit:10;"/><line style="stroke:#000000;stroke-width:2;" x1="1143.9106" x2="1143.9106" y1="571.8696" y2="591.8696"/><polygon fill="#000000" points="1139.9106,581.8696,1143.9106,591.8696,1147.9106,581.8696,1143.9106,585.8696" style="stroke:#000000;stroke-width:1;stroke-linejoin:miter;stroke-miterlimit:10;"/><line style="stroke:#000000;stroke-width:2;" x1="1143.9106" x2="1143.9106" y1="647.8696" y2="667.8696"/><polygon fill="#000000" points="1139.9106,657.8696,1143.9106,667.8696,1147.9106,657.8696,1143.9106,661.8696" style="stroke:#000000;stroke-width:1;stroke-linejoin:miter;stroke-miterlimit:10;"/><line style="stroke:#000000;stroke-width:2;" x1="1339.3271" x2="1143.9106" y1="501.8696" y2="501.8696"/><line style="stroke:#000000;stroke-width:2;" x1="1143.9106" x2="1143.9106" y1="501.8696" y2="533.8696"/><polygon fill="#000000" points="1139.9106,523.8696,1143.9106,533.8696,1147.9106,523.8696,1143.9106,527.8696" style="stroke:#000000;stroke-width:1;stroke-linejoin:miter;stroke-miterlimit:10;"/><line style="stroke:#000000;stroke-width:2;" x1="1557.416" x2="1759.3774" y1="501.8696" y2="501.8696"/><line style="stroke:#000000;stroke-width:2;" x1="1759.3774" x2="1759.3774" y1="501.8696" y2="533.8696"/><polygon fill="#000000" points="1755.3774,523.8696,1759.3774,533.8696,1763.3774,523.8696,1759.3774,527.8696" style="stroke:#000000;stroke-width:1;stroke-linejoin:miter;stroke-miterlimit:10;"/><line style="stroke:#000000;stroke-width:2;" x1="1448.3716" x2="1448.3716" y1="469.8696" y2="489.8696"/><polygon fill="#000000" points="1444.3716,479.8696,1448.3716,489.8696,1452.3716,479.8696,1448.3716,483.8696" style="stroke:#000000;stroke-width:1;stroke-linejoin:miter;stroke-miterlimit:10;"/><line style="stroke:#000000;stroke-width:2;" x1="534.9822" x2="534.9822" y1="335.8696" y2="340.8696"/><line style="stroke:#000000;stroke-width:2;" x1="534.9822" x2="1448.3716" y1="340.8696" y2="340.8696"/><line style="stroke:#000000;stroke-width:2;" x1="1448.3716" x2="1448.3716" y1="340.8696" y2="355.8696"/><polygon fill="#000000" points="1444.3716,345.8696,1448.3716,355.8696,1452.3716,345.8696,1448.3716,349.8696" style="stroke:#000000;stroke-width:1;stroke-linejoin:miter;stroke-miterlimit:10;"/><line style="stroke:#000000;stroke-width:2;" x1="1143.9106" x2="1143.9106" y1="705.8696" y2="710.8696"/><line style="stroke:#000000;stroke-width:2;" x1="1143.9106" x2="167.5557" y1="710.8696" y2="710.8696"/><line style="stroke:#000000;stroke-width:2;" x1="167.5557" x2="167.5557" y1="710.8696" y2="725.8696"/><polygon fill="#000000" points="163.5557,715.8696,167.5557,725.8696,171.5557,715.8696,167.5557,719.8696" style="stroke:#000000;stroke-width:1;stroke-linejoin:miter;stroke-miterlimit:10;"/><line style="stroke:#000000;stroke-width:2;" x1="1759.3774" x2="1759.3774" y1="571.8696" y2="576.8696"/><line style="stroke:#000000;stroke-width:2;" x1="1759.3774" x2="844.0293" y1="576.8696" y2="576.8696"/><line style="stroke:#000000;stroke-width:2;" x1="844.0293" x2="844.0293" y1="576.8696" y2="591.8696"/><polygon fill="#000000" points="840.0293,581.8696,844.0293,591.8696,848.0293,581.8696,844.0293,585.8696" style="stroke:#000000;stroke-width:1;stroke-linejoin:miter;stroke-miterlimit:10;"/><text fill="#000000" font-family="'Helvetica'" font-size="19" lengthAdjust="spacing" textLength="192.1709" x="395.2202" y="96.5">USUARIO (cualquiera)</text><text fill="#000000" font-family="'Helvetica'" font-size="19" lengthAdjust="spacing" textLength="293.0435" x="1302.9534" y="96.5">SISTEMA (Backend Django + API)</text><?plantuml-src ZLHDSzis4BtpLspbYyGeTUsq7KVEfCFemsL6iLnHJY--hC0bXHW457p8euv_V1UKN3CTTvgB3N5t7_QzVOiV_8OQWgr2gHDtB_KMBJRWfLSqCzeNyY-2yvzV3Fcz8bWRLNQYxa4s2ZMjlW4uUzj9KLIJBfzZltHYQnJtjJL1bsEZZ8MJsTlPnQoRKLA5GVcNeJl1QsHQlTz9xSXBWRrELeilZDLauUoys_m6I_CWTGqLAaUTI2Qyt4c_VxxsueNeH69ZkjIwITV6TmJvjLjkhNduZz0H-OEn9TdLHefxJSx1UPAqSu1tw_StoyLuMYpW35v35Zpfo5T8eu4WrxKbPm0L5D9vQl3TwVhzdSwsYfC0ONoRpV-upQTB22wWbGRwHTYoC5dPI3ry-lUHAXh2L0kqDMiqX8aHV57yvdme9V9va2IF9zCti_FPvF6skCsM-GBw8g3w6YHP73mcpgFroIXRMm9Ie7574St27XZCnduKtcaseyVAs0QXk9f3VukrrCZ3XRdXq-0o6KsTi79Du0AawHXvb3x6ypAoBx64_ZWVfEcTtXzIX8duZZIcAPVVi2Wi4COkriQpLBs3KcXxbv76R3PxC_tfiSYBrVHJ1lqFx4isBKo-eAuDl8Bi9cT2eoM9sCOuvq_FT_0DdydAAagiq86mn8q9YOhSdJxaSO3TxYYsNQ8tZk-L5VVToML8QqbuTByDW1TLGv_dNUHnXeC4O7H5x65aVYl3xS77FrTf2dqK8ixy5LYgc9Cmh1WdBwbc2zYMDErOACE5yyLLVir5N9tn7BsnaYVGFvfX21M93PvkZCKXv3S7e0dvs5J4ITFbOixb9P-FDSm3u7-Cm21J1UxWI506bA8THfUcwGJTPctGbd5IXyI6T62zF1VpZq0jYs8nNt0f2zgOCl01sBQDvF778szFdBmrAe9etZsmijvuE1bF9-F91N-4k3oV8hIZEkYOEuhAjg7N1-UFOBMOSFT7RcuOfrp9UWZufDRWc1zNP0HraCXP2jVybvZmDXP5NoXsEXyjROtrv8vL_wpKwDyrB8WAxHuJ_shYXkaVZrN7xJjzNhuHE7umuIfUpqdHgv4q7vqtsoGXVizQzrmldjpptIvlHxuByIa5uhVAGkyRbqhDhVBMkTxbTut-SxlzF5I7Nrh_7q3tlFc1OHalFc9eGGSMeObCBv-8S7ko-Xi0?></g></svg>